<svg width="100" height="100" viewBox="0 0 100 100" fill="none" xmlns="http://www.w3.org/2000/svg">
<path d="M81.2375 68.7729C80.4312 68.7729 79.6646 68.3021 79.325 67.5146C78.8687 66.4562 79.3562 65.2312 80.4104 64.7771L91.175 60.1333C92.6958 59.4771 93.6854 57.9812 93.6917 56.3229L93.7333 45.8646C93.7354 45.3042 93.5167 44.7792 93.1208 44.3812C92.7229 43.9875 92.1312 43.7521 91.6375 43.7729L85.4854 43.8083C85.4812 43.8083 85.4771 43.8083 85.4729 43.8083C84.3271 43.8083 83.3958 42.8833 83.3896 41.7375C83.3833 40.5854 84.3104 39.6479 85.4604 39.6417L91.6146 39.6062C91.6271 39.6062 91.6375 39.6062 91.65 39.6062C93.3187 39.6062 94.8833 40.2542 96.0646 41.4333C97.2542 42.6208 97.9062 44.2 97.9 45.8812L97.8583 56.3396C97.8437 59.6562 95.8687 62.6458 92.8271 63.9583L82.0625 68.6021C81.7937 68.7167 81.5146 68.7729 81.2375 68.7729Z" fill="url(#paint0_linear_690_119)"/>
<path d="M41.6667 81.25H20.8333C19.6833 81.25 18.75 80.3167 18.75 79.1667V70.8333H43.75V79.1667C43.75 80.3167 42.8167 81.25 41.6667 81.25Z" fill="url(#paint1_linear_690_119)"/>
<path d="M55.3208 47.8125C55.3208 44.4854 52.625 41.7896 49.2979 41.7896C49.2979 37.6313 45.9271 34.2604 41.7687 34.2604C41.1375 34.2604 40.5333 34.3604 39.9479 34.5083C39.5812 34.35 39.1792 34.2604 38.7563 34.2604C38.7563 32.5958 37.4083 31.2479 35.7437 31.2479C34.8396 31.2479 34.0375 31.6542 33.4854 32.2875C32.9354 31.6563 32.1354 31.25 31.2292 31.25C29.7833 31.25 28.5771 32.2688 28.2875 33.6292C27.3833 33.0875 26.3375 32.7563 25.2062 32.7563C22.3812 32.7563 20.0292 34.7083 19.3771 37.3313C19.0667 37.2958 18.75 37.2729 18.4292 37.2729C14.1083 37.2729 10.5646 40.5833 10.1854 44.8063C10.1708 44.8042 10.1604 44.8021 10.1479 44.8021C6.82083 44.8021 4.125 47.4979 4.125 50.825C4.125 54.1521 6.82083 56.8479 10.1479 56.8479C12.5771 56.8479 14.6562 55.4021 15.6083 53.3333C16.4896 53.6521 17.4354 53.8354 18.4292 53.8354C20.4312 53.8354 22.2667 53.125 23.7 51.9417C25.1312 53.1229 26.9667 53.8354 28.9708 53.8354C30.975 53.8354 32.8083 53.125 34.2417 51.9417C35.6729 53.1229 37.5083 53.8354 39.5125 53.8354C41.5583 53.8354 43.425 53.0917 44.8708 51.8625C45.9708 53.0667 47.5396 53.8354 49.3 53.8354C50.6604 53.8354 51.9 53.3688 52.9083 52.6083C53.4583 53.35 54.3312 53.8354 55.3229 53.8354C56.9875 53.8354 58.3354 52.4875 58.3354 50.8229C58.3354 49.1583 56.9854 47.8125 55.3208 47.8125Z" fill="url(#paint2_linear_690_119)"/>
<path d="M58.7627 50H3.61475C2.76891 50 2.0835 50.6854 2.0835 51.5313C2.0835 65.0688 13.0564 76.0417 26.5939 76.0417H35.7856C49.3231 76.0417 60.296 65.0688 60.296 51.5313C60.2939 50.6854 59.6085 50 58.7627 50Z" fill="url(#paint3_linear_690_119)"/>
<path d="M77.8585 81.25H55.5023C54.0377 81.25 52.796 80.1667 52.6002 78.7146L45.846 28.7438C45.7293 27.8646 46.4127 27.0833 47.2981 27.0833H86.0627C86.9502 27.0833 87.6314 27.8646 87.5127 28.7438L80.7585 78.7146C80.5627 80.1667 79.3231 81.25 77.8585 81.25Z" fill="url(#paint4_linear_690_119)"/>
<path d="M87.3791 85.4167H12.6207C10.8353 85.4167 9.24989 84.2812 8.67489 82.5917L8.44364 81.9104C7.98531 80.5604 9.00822 79.1667 10.4582 79.1667H89.5416C90.9916 79.1667 92.0145 80.5604 91.5561 81.9083L91.3249 82.5896C90.7499 84.2812 89.1645 85.4167 87.3791 85.4167Z" fill="url(#paint5_linear_690_119)"/>
<path d="M56.2498 18.75C55.0978 18.75 54.1665 17.8187 54.1665 16.6667V8.33333C54.1665 7.18125 55.0978 6.25 56.2498 6.25C57.4019 6.25 58.3332 7.18125 58.3332 8.33333V16.6667C58.3332 17.8187 57.4019 18.75 56.2498 18.75Z" fill="#CDD0D2"/>
<path d="M77.0833 18.75C75.9313 18.75 75 17.8187 75 16.6667V8.33333C75 7.18125 75.9313 6.25 77.0833 6.25C78.2354 6.25 79.1667 7.18125 79.1667 8.33333V16.6667C79.1667 17.8187 78.2354 18.75 77.0833 18.75Z" fill="#CDD0D2"/>
<path d="M66.6668 22.9167C65.5147 22.9167 64.5835 21.9854 64.5835 20.8333V14.5833C64.5835 13.4313 65.5147 12.5 66.6668 12.5C67.8189 12.5 68.7502 13.4313 68.7502 14.5833V20.8333C68.7502 21.9854 67.8189 22.9167 66.6668 22.9167Z" fill="#CDD0D2"/>
<path opacity="0.05" d="M46.8752 36.2708C46.521 35.9375 46.1252 35.625 45.6877 35.375C45.3335 35.1458 44.9585 34.9583 44.5835 34.8125L49.5627 71.7917C49.896 71.5625 50.2085 71.3333 50.521 71.1042C50.8543 70.8542 51.1668 70.6042 51.4793 70.3333L46.8752 36.2708Z" fill="black"/>
<path opacity="0.07" d="M46.875 36.2708C46.5208 35.9375 46.125 35.625 45.6875 35.375L50.5208 71.1042C50.8542 70.8542 51.1667 70.6042 51.4792 70.3333L46.875 36.2708Z" fill="black"/>
<defs>
<linearGradient id="paint0_linear_690_119" x1="82.6521" y1="53.5417" x2="95.9687" y2="55.7146" gradientUnits="userSpaceOnUse">
<stop stop-color="#8C20E5"/>
<stop offset="0.528" stop-color="#A235EC"/>
<stop offset="1" stop-color="#BD4FF4"/>
</linearGradient>
<linearGradient id="paint1_linear_690_119" x1="31.25" y1="74.3667" x2="31.25" y2="81.5354" gradientUnits="userSpaceOnUse">
<stop offset="0.018" stop-color="#005AB3"/>
<stop offset="0.497" stop-color="#007AD9"/>
<stop offset="1" stop-color="#2AA4F4"/>
</linearGradient>
<linearGradient id="paint2_linear_690_119" x1="31.2292" y1="26.9542" x2="31.2292" y2="69.7708" gradientUnits="userSpaceOnUse">
<stop stop-color="#FED100"/>
<stop offset="1" stop-color="#E38101"/>
</linearGradient>
<linearGradient id="paint3_linear_690_119" x1="31.1897" y1="50.3833" x2="31.1897" y2="74.2854" gradientUnits="userSpaceOnUse">
<stop stop-color="#2AA4F4"/>
<stop offset="1" stop-color="#007AD9"/>
</linearGradient>
<linearGradient id="paint4_linear_690_119" x1="64.0689" y1="26.525" x2="76.1293" y2="80.9438" gradientUnits="userSpaceOnUse">
<stop stop-color="#BD4FF4"/>
<stop offset="0.587" stop-color="#A235EC"/>
<stop offset="1" stop-color="#8C20E5"/>
</linearGradient>
<linearGradient id="paint5_linear_690_119" x1="-1.3897" y1="82.2917" x2="102.789" y2="82.2917" gradientUnits="userSpaceOnUse">
<stop stop-color="#DFE9F2"/>
<stop offset="0.391" stop-color="#D6E0E9"/>
<stop offset="1" stop-color="#BFC8D1"/>
</linearGradient>
</defs>
</svg>
