<svg width="100" height="100" viewBox="0 0 100 100" fill="none" xmlns="http://www.w3.org/2000/svg">
<path d="M87.5 34.375C87.5 24.5833 79.5833 16.6667 69.7917 16.6667C67.5 16.6667 65.4167 17.0833 63.3333 17.9167C60.2083 13.3333 55 10.4167 48.9583 10.4167C43.3333 10.4167 38.125 13.125 35 17.2917C33.3333 16.875 31.875 16.6667 30.2083 16.6667C20.4167 16.6667 12.5 24.5833 12.5 34.375C12.5 42.2917 17.7083 49.1667 25 51.25V89.5833H75V51.25C82.2917 49.1667 87.5 42.2917 87.5 34.375Z" fill="url(#paint0_linear_690_780)"/>
<path d="M37.4998 81.25C36.2498 81.25 35.4165 80.2083 35.4165 79.1667V60.4167C35.4165 59.375 36.2498 58.3333 37.4998 58.3333C38.5415 58.3333 39.5832 59.1667 39.5832 60.4167V79.1667C39.5832 80.2083 38.7498 81.25 37.4998 81.25ZM52.0832 79.1667V60.4167C52.0832 59.375 51.2498 58.3333 49.9998 58.3333C48.9582 58.3333 47.9165 59.1667 47.9165 60.4167V79.1667C47.9165 80.2083 48.7498 81.25 49.9998 81.25C51.2498 81.25 52.0832 80.2083 52.0832 79.1667ZM64.5832 79.1667V60.4167C64.5832 59.375 63.7498 58.3333 62.4998 58.3333C61.4582 58.3333 60.4165 59.1667 60.4165 60.4167V79.1667C60.4165 80.2083 61.2498 81.25 62.4998 81.25C63.7498 81.25 64.5832 80.2083 64.5832 79.1667Z" fill="url(#paint1_linear_690_780)"/>
<path d="M25 77.0833H75V89.5833H25V77.0833Z" fill="url(#paint2_linear_690_780)"/>
<path opacity="0.05" d="M75 75H25V77.0833H75V75Z" fill="#231F20"/>
<path opacity="0.07" d="M75 76.0417H25V77.0833H75V76.0417Z" fill="#231F20"/>
<defs>
<linearGradient id="paint0_linear_690_780" x1="50" y1="10.4167" x2="50" y2="90.5583" gradientUnits="userSpaceOnUse">
<stop stop-color="#A8E2F7"/>
<stop offset="1" stop-color="#47C1FF"/>
</linearGradient>
<linearGradient id="paint1_linear_690_780" x1="49.9998" y1="58.3333" x2="49.9998" y2="81.25" gradientUnits="userSpaceOnUse">
<stop offset="0.002" stop-color="#427FDB"/>
<stop offset="0.397" stop-color="#2668CB"/>
<stop offset="0.763" stop-color="#1358BF"/>
<stop offset="1" stop-color="#0C52BB"/>
</linearGradient>
<linearGradient id="paint2_linear_690_780" x1="50" y1="68.3708" x2="50" y2="90.3667" gradientUnits="userSpaceOnUse">
<stop stop-color="#32BDEF"/>
<stop offset="1" stop-color="#1EA2E4"/>
</linearGradient>
</defs>
</svg>
