<svg width="100" height="100" viewBox="0 0 100 100" fill="none" xmlns="http://www.w3.org/2000/svg">
<path d="M74.9993 87.5H20.8327C18.5306 87.5 16.666 85.6354 16.666 83.3333V16.6667C16.666 14.3646 18.5306 12.5 20.8327 12.5H74.9993C77.3014 12.5 79.166 14.3646 79.166 16.6667V83.3333C79.166 85.6354 77.3014 87.5 74.9993 87.5Z" fill="url(#paint0_linear_675_354)"/>
<path d="M70.834 83.3335V77.0835H8.33398V83.3335C8.33398 85.6356 10.1986 87.5002 12.5007 87.5002H75.0006C72.6986 87.5002 70.834 85.6356 70.834 83.3335Z" fill="url(#paint1_linear_675_354)"/>
<path d="M67.709 39.5835H40.6257C40.0507 39.5835 39.584 39.1168 39.584 38.5418V34.3752C39.584 33.8002 40.0507 33.3335 40.6257 33.3335H67.709C68.284 33.3335 68.7507 33.8002 68.7507 34.3752V38.5418C68.7507 39.1168 68.284 39.5835 67.709 39.5835Z" fill="#057093"/>
<path d="M67.709 52.0835H40.6257C40.0507 52.0835 39.584 51.6168 39.584 51.0418V46.8752C39.584 46.3002 40.0507 45.8335 40.6257 45.8335H67.709C68.284 45.8335 68.7507 46.3002 68.7507 46.8752V51.0418C68.7507 51.6168 68.284 52.0835 67.709 52.0835Z" fill="#057093"/>
<path d="M67.709 64.5835H40.6257C40.0507 64.5835 39.584 64.1168 39.584 63.5418V59.3752C39.584 58.8002 40.0507 58.3335 40.6257 58.3335H67.709C68.284 58.3335 68.7507 58.8002 68.7507 59.3752V63.5418C68.7507 64.1168 68.284 64.5835 67.709 64.5835Z" fill="#057093"/>
<path d="M32.2923 39.5835H28.1257C27.5507 39.5835 27.084 39.1168 27.084 38.5418V34.3752C27.084 33.8002 27.5507 33.3335 28.1257 33.3335H32.2923C32.8673 33.3335 33.334 33.8002 33.334 34.3752V38.5418C33.334 39.1168 32.8673 39.5835 32.2923 39.5835Z" fill="#057093"/>
<path d="M32.2923 52.0835H28.1257C27.5507 52.0835 27.084 51.6168 27.084 51.0418V46.8752C27.084 46.3002 27.5507 45.8335 28.1257 45.8335H32.2923C32.8673 45.8335 33.334 46.3002 33.334 46.8752V51.0418C33.334 51.6168 32.8673 52.0835 32.2923 52.0835Z" fill="#057093"/>
<path d="M32.2923 64.5835H28.1257C27.5507 64.5835 27.084 64.1168 27.084 63.5418V59.3752C27.084 58.8002 27.5507 58.3335 28.1257 58.3335H32.2923C32.8673 58.3335 33.334 58.8002 33.334 59.3752V63.5418C33.334 64.1168 32.8673 64.5835 32.2923 64.5835Z" fill="#057093"/>
<defs>
<linearGradient id="paint0_linear_675_354" x1="26.9827" y1="15.4792" x2="71.6368" y2="89.1187" gradientUnits="userSpaceOnUse">
<stop stop-color="#7DD8F3"/>
<stop offset="1" stop-color="#45B0D0"/>
</linearGradient>
<linearGradient id="paint1_linear_675_354" x1="41.6673" y1="77.6752" x2="41.6673" y2="87.521" gradientUnits="userSpaceOnUse">
<stop stop-color="#0176D0"/>
<stop offset="1" stop-color="#16538C"/>
</linearGradient>
</defs>
</svg>
