<svg width="117" height="117" viewBox="0 0 117 117" fill="none" xmlns="http://www.w3.org/2000/svg">
<path d="M53.625 9.74992H63.375V70.6874H53.625V9.74992Z" fill="#FBC02D"/>
<path d="M40.5679 12.9028L50.2818 12.1876L54.7564 72.9606L45.0425 73.6758L40.5679 12.9028Z" fill="#FBC02D"/>
<path d="M27.7891 21.0361L37.4109 19.5066L46.9769 79.6862L37.355 81.2156L27.7891 21.0361Z" fill="#FBC02D"/>
<path d="M62.4517 75.4624L66.9189 14.6889L76.6305 15.4028L72.1633 76.1763L62.4517 75.4624Z" fill="#FBC02D"/>
<path d="M71.0044 77.3836L80.5777 17.2053L90.197 18.7355L80.6237 78.9138L71.0044 77.3836Z" fill="#FBC02D"/>
<path d="M14.6206 26.0031L24.0855 23.7033L38.4716 82.9108L29.0068 85.2106L14.6206 26.0031Z" fill="#FBC02D"/>
<path d="M88.0401 85.9607L78.6094 83.6621L92.9443 24.4528L102.375 26.7538L88.0401 85.9607Z" fill="#FBC02D"/>
<path d="M44.0229 24.8393L53.734 24.0852L58.4513 84.8374L48.7402 85.5915L44.0229 24.8393Z" fill="#FFEE58"/>
<path d="M56.1421 86.9728L61.2974 26.2538L71.0003 27.0776L65.845 87.7966L56.1421 86.9728Z" fill="#FFEE58"/>
<path d="M76.918 93.0783L67.5068 90.5579L83.2214 31.6874L92.6326 34.2054L76.918 93.0783Z" fill="#FFEE58"/>
<path d="M26.0928 36.6493L35.5018 34.131L51.2559 92.9918L41.8469 95.5101L26.0928 36.6493Z" fill="#FFEE58"/>
<path d="M85.725 51.1875C82.4563 56.7474 71.3584 60.6328 58.4152 60.6328C45.4721 60.6328 34.3766 56.7474 29.4626 51.1875H19.8491L26.8131 99.9375L36.5631 107.25C36.5631 107.25 46.3837 102.375 58.5006 102.375C70.6174 102.375 80.4381 107.25 80.4381 107.25L90.1881 99.9375L97.152 51.1875H85.725Z" fill="#F44336"/>
<path d="M58.5001 58.5C58.5221 58.5 58.5415 58.5 58.5611 58.5L58.9754 53.6177C58.817 53.6177 58.661 53.625 58.5001 53.625C57.6592 53.625 56.8353 53.6006 56.0236 53.5641L56.4014 58.4586C57.0961 58.4829 57.7932 58.5 58.5001 58.5ZM46.5369 57.2106L46.142 52.0918C45.1792 51.8359 44.2578 51.558 43.3925 51.2533L43.7776 56.4988C44.6673 56.7596 45.5887 56.9961 46.5369 57.2106ZM41.2694 55.6798C41.9178 55.9187 42.5832 56.1454 43.2706 56.355L42.4004 50.8779C41.4059 50.4904 40.4894 50.0784 39.6534 49.6421L41.2694 55.6798ZM75.119 50.6805L74.9825 50.7317C73.1836 51.4581 71.1239 52.0894 68.8376 52.5769L68.4086 57.6249C70.4707 57.252 72.4256 56.7669 74.2439 56.1844C74.3609 56.1478 74.4755 56.1064 74.5925 56.0698C75.4042 55.7993 76.1915 55.5141 76.9447 55.2069L78.6217 48.9255C77.6077 49.5471 76.4401 50.1394 75.119 50.6805ZM29.3306 48.75L28.0241 43.875H18.9614L20.1461 48.75H29.3306ZM98.2289 43.875H90.0511L88.7495 48.75H97.0492L98.2289 43.875Z" fill="#FFA726"/>
<path d="M56.0235 53.5641C55.224 53.5275 54.4416 53.469 53.6737 53.4008C53.5519 53.3886 53.4349 53.3764 53.313 53.3642C50.7122 53.1058 48.3064 52.6695 46.1394 52.0942L46.5343 57.213C48.7792 57.72 51.168 58.0929 53.6713 58.3026V58.2636L53.6737 58.3026C54.5683 58.3781 55.4775 58.4293 56.3989 58.461L56.0235 53.5641ZM65.0374 53.2179C64.506 53.2862 63.9624 53.3398 63.414 53.391C61.9881 53.5251 60.5085 53.6031 58.9777 53.6153L58.5609 58.5C60.216 58.4976 61.8345 58.4244 63.414 58.2904C63.8381 58.2538 64.2549 58.2075 64.6717 58.1636C65.9514 58.0247 67.197 57.8468 68.4084 57.6274L68.8374 52.5793C67.6309 52.8352 66.3609 53.0498 65.0374 53.2179ZM89.778 43.875H83.5282L82.0706 45.9322C81.3491 46.9511 80.1694 47.9724 78.6191 48.9255L76.9421 55.2069C80.4156 53.7883 83.226 51.9797 85.1029 49.9102C85.4466 49.53 85.7683 49.1449 86.0486 48.75H88.7494L89.2466 46.8902L90.051 43.875H89.778ZM39.6532 49.6446C37.4619 48.4989 35.8361 47.2168 34.9294 45.9347L33.4717 43.875H28.0239L29.328 48.75H30.9489C31.3755 49.3545 31.8971 49.9346 32.4724 50.5001C34.5637 52.5525 37.5814 54.327 41.2669 55.6798L39.6532 49.6446Z" fill="#FDD835"/>
<path d="M28.7235 53.6251C34.4419 59.536 45.3594 63.3751 58.5 63.3751C71.6406 63.3751 82.5581 59.536 88.2765 53.6251H96.8053L97.5 48.7501H86.0511C82.0316 54.427 71.2311 58.5001 58.5 58.5001C45.7689 58.5001 34.9684 54.427 30.9489 48.7501H19.5L20.1971 53.6251H28.7235ZM65.8125 70.9923C68.757 70.9923 70.6875 82.4997 70.6875 97.5001H75.5625C75.5625 81.3468 71.2652 68.2501 65.9661 68.2501C62.9509 68.2501 60.2599 72.1866 58.5024 78.3413C56.7426 72.1866 54.0516 68.2501 51.0364 68.2501C45.7348 68.2501 41.4375 81.3468 41.4375 97.5001H46.3125C46.3125 82.4997 48.243 70.9923 51.1875 70.9923C54.132 70.9923 56.0625 81.2151 56.0625 95.0626H60.9375C60.9375 81.2151 62.868 70.9923 65.8125 70.9923Z" fill="#FFC107"/>
</svg>
