      <svg width="158" height="126" viewBox="0 0 158 126" fill="none" xmlns="http://www.w3.org/2000/svg">
        <path d="M3.95 3.9375C1.7775 3.9375 0 5.70937 0 7.875V43.3125C0 49.834 5.30781 55.125 11.85 55.125H15.8V118.125C15.8 120.291 17.5775 122.062 19.75 122.062C21.9225 122.062 23.7 120.291 23.7 118.125V55.125H27.65C34.1922 55.125 39.5 49.834 39.5 43.3125V7.875C39.5 5.70937 37.7225 3.9375 35.55 3.9375C33.3775 3.9375 31.6 5.70937 31.6 7.875V43.3125C31.6 45.4781 29.8225 47.25 27.65 47.25H23.7V7.875C23.7 5.70937 21.9225 3.9375 19.75 3.9375C17.5775 3.9375 15.8 5.70937 15.8 7.875V47.25H11.85C9.6775 47.25 7.9 45.4781 7.9 43.3125V7.875C7.9 5.70937 6.1225 3.9375 3.95 3.9375ZM122.944 19.4168C112.402 9.79453 98.355 3.9375 82.95 3.9375C69.6188 3.9375 57.2997 8.34258 47.4 15.75V26.0613C56.6331 17.2266 69.1497 11.8125 82.95 11.8125C97.4909 11.8125 110.6 17.8418 119.957 27.5133C120.722 24.5602 121.734 21.8777 122.944 19.4168ZM128.992 85.7144C120.598 102.596 103.12 114.188 82.95 114.188C64.7306 114.188 48.7331 104.738 39.6234 90.4641C37.525 92.0637 35.1056 93.2449 32.4641 93.9094C42.8822 110.791 61.5953 122.062 82.95 122.062C107.243 122.062 128.128 107.494 137.262 86.625H134.3C132.424 86.625 130.646 86.3051 128.992 85.7144ZM118.5 63C118.5 58.3463 117.58 53.7381 115.794 49.4387C114.007 45.1392 111.389 41.2326 108.088 37.9419C104.787 34.6512 100.868 32.0409 96.5544 30.26C92.2413 28.4791 87.6185 27.5625 82.95 27.5625C78.2815 27.5625 73.6587 28.4791 69.3456 30.26C65.0325 32.0409 61.1135 34.6512 57.8124 37.9419C54.5112 41.2326 51.8926 45.1392 50.1061 49.4387C48.3195 53.7381 47.4 58.3463 47.4 63C47.4 67.6537 48.3195 72.2619 50.1061 76.5613C51.8926 80.8608 54.5112 84.7674 57.8124 88.0581C61.1135 91.3488 65.0325 93.9591 69.3456 95.74C73.6587 97.5209 78.2815 98.4375 82.95 98.4375C87.6185 98.4375 92.2413 97.5209 96.5544 95.74C100.868 93.9591 104.787 91.3488 108.088 88.0581C111.389 84.7674 114.007 80.8608 115.794 76.5613C117.58 72.2619 118.5 67.6537 118.5 63ZM55.3 63C55.3 55.69 58.2131 48.6793 63.3985 43.5104C68.5839 38.3414 75.6168 35.4375 82.95 35.4375C90.2832 35.4375 97.3161 38.3414 102.502 43.5104C107.687 48.6793 110.6 55.69 110.6 63C110.6 70.31 107.687 77.3207 102.502 82.4896C97.3161 87.6586 90.2832 90.5625 82.95 90.5625C75.6168 90.5625 68.5839 87.6586 63.3985 82.4896C58.2131 77.3207 55.3 70.31 55.3 63ZM150.1 13.3875V70.875H134.3V39.375C134.3 24.2895 144.027 16.6852 150.1 13.3875ZM158 70.875V9.08086C158 6.25078 155.704 3.9375 152.84 3.9375C152.322 3.9375 151.828 4.01133 151.334 4.18359C147.187 5.70937 126.4 14.5687 126.4 39.375V70.875C126.4 75.2309 129.93 78.75 134.3 78.75H150.1V118.125C150.1 120.291 151.878 122.062 154.05 122.062C156.223 122.062 158 120.291 158 118.125V78.75V74.8125V70.875Z" fill="#BEBEBE"/>
      </svg>